<svg xmlns="http://www.w3.org/2000/svg" width="1024" height="1024" viewBox="0 0 1024 1024">
<g>
<path d="M 704.62 520.51 C701.98,521.62 697.11,521.99 685.78,521.96 C669.40,521.92 665.85,521.14 661.00,516.50 C659.62,515.18 655.93,512.97 652.79,511.59 C649.66,510.20 646.31,507.88 645.36,506.43 C644.41,504.98 641.95,502.73 639.90,501.44 C636.90,499.54 635.86,498.02 634.60,493.71 C633.75,490.76 631.83,486.58 630.35,484.42 C625.81,477.83 625.09,474.47 625.09,460.00 C625.09,445.44 625.92,441.60 630.30,435.85 C631.75,433.95 633.90,430.21 635.08,427.55 C636.26,424.89 638.86,421.06 640.86,419.04 C642.86,417.02 645.27,414.21 646.22,412.79 C647.46,410.93 649.95,409.61 655.22,408.03 C659.22,406.83 664.18,404.76 666.23,403.43 C669.78,401.11 670.71,401.00 685.99,401.00 C701.85,401.00 702.09,401.03 707.27,403.92 C710.14,405.53 714.53,407.35 717.00,407.96 C723.58,409.60 725.73,410.92 727.06,414.15 C727.72,415.74 730.00,418.42 732.13,420.10 C734.26,421.79 736.00,423.70 736.00,424.34 C736.00,425.94 740.75,434.78 743.68,438.63 C746.64,442.53 748.30,454.83 747.44,466.50 C746.77,475.61 745.74,478.90 741.84,484.34 C740.33,486.45 738.38,490.61 737.52,493.59 C736.24,497.98 735.22,499.47 732.15,501.40 C730.07,502.72 727.59,504.98 726.64,506.43 C725.69,507.88 722.57,510.10 719.71,511.37 C716.84,512.65 713.08,514.89 711.34,516.36 C709.60,517.83 706.58,519.70 704.62,520.51 ZM 387.10 520.86 C382.32,522.46 355.52,522.28 350.83,520.60 C348.81,519.88 345.27,517.67 342.96,515.70 C340.65,513.72 337.47,511.82 335.90,511.48 C334.25,511.12 330.02,507.91 325.98,503.98 C320.59,498.73 318.61,496.01 317.52,492.39 C316.73,489.79 314.72,485.74 313.03,483.40 C309.31,478.21 307.99,471.84 308.02,459.11 C308.05,447.62 309.23,441.88 312.44,437.65 C313.75,435.92 316.27,431.48 318.02,427.78 C319.78,424.09 322.05,420.80 323.06,420.48 C324.06,420.16 326.25,417.69 327.91,415.00 C330.42,410.92 331.64,409.91 335.21,409.00 C341.45,407.40 347.00,405.14 350.10,402.93 C352.51,401.22 354.60,401.00 368.92,401.00 C384.86,401.00 385.08,401.03 390.27,403.92 C393.14,405.53 397.52,407.35 400.00,407.96 C406.59,409.60 408.73,410.92 410.08,414.19 C410.75,415.80 412.86,418.32 414.77,419.78 C416.69,421.24 419.10,424.40 420.13,426.79 C421.15,429.19 423.59,433.55 425.54,436.49 C432.95,447.65 433.09,471.95 425.81,483.29 C424.07,486.01 421.89,490.54 420.98,493.37 C419.70,497.31 418.40,499.12 415.37,501.18 C413.19,502.65 410.82,504.97 410.08,506.34 C409.31,507.79 406.68,509.70 403.85,510.88 C401.15,512.00 397.04,514.44 394.72,516.31 C392.40,518.18 388.97,520.23 387.10,520.86 ZM 570.75 660.35 C565.33,661.00 491.18,660.93 482.76,660.27 C478.68,659.94 477.92,659.54 477.39,657.41 C476.67,654.54 473.87,652.93 465.50,650.54 C461.96,649.54 458.26,647.65 456.48,645.94 C454.82,644.35 450.77,641.73 447.48,640.13 C440.73,636.83 429.48,626.40 424.95,619.26 C422.52,615.43 422.00,613.54 422.00,608.54 C422.00,600.95 423.90,597.32 430.50,592.31 C435.02,588.88 436.17,588.49 442.50,588.21 C447.97,587.97 450.07,588.29 452.12,589.70 C453.55,590.69 456.56,592.72 458.79,594.22 C461.02,595.71 464.30,598.74 466.08,600.95 C468.87,604.43 470.48,605.33 477.91,607.57 C482.63,608.99 488.16,611.29 490.20,612.68 C497.37,617.57 499.76,617.91 527.09,617.96 C554.36,618.00 558.79,617.42 565.00,613.00 C566.72,611.77 571.80,609.25 576.27,607.39 C580.75,605.53 586.00,602.50 587.95,600.67 C589.90,598.83 594.42,595.36 598.00,592.95 C603.86,589.00 605.19,588.53 611.51,588.19 C618.48,587.81 618.54,587.83 624.70,592.36 C628.10,594.86 631.39,597.87 632.02,599.04 C633.82,602.40 634.38,611.32 633.04,615.37 C631.10,621.24 614.73,636.86 605.79,641.36 C601.78,643.38 597.01,646.13 595.19,647.46 C593.37,648.79 589.36,650.41 586.29,651.04 C580.69,652.21 576.00,655.52 576.00,658.32 C576.00,659.26 574.30,659.93 570.75,660.35 Z" fill="rgb(67,76,100)"/>
<path d="M 829.40 785.50 L 824.95 790.50 L 532.23 790.57 C371.23,790.61 237.14,790.47 234.25,790.27 C229.62,789.94 228.82,789.55 227.48,786.96 C226.64,785.34 223.94,781.75 221.48,778.98 C219.02,776.20 217.00,773.50 217.00,772.97 C217.00,772.44 215.50,770.32 213.67,768.25 C211.84,766.19 209.55,762.47 208.59,760.00 C207.62,757.53 205.72,754.03 204.36,752.24 C203.00,750.45 201.01,746.44 199.94,743.32 C198.87,740.21 196.82,735.66 195.38,733.21 C193.95,730.76 191.69,724.48 190.36,719.25 C189.03,714.01 187.13,708.56 186.14,707.12 C183.65,703.52 183.29,702.32 181.49,691.75 C180.63,686.66 178.62,678.67 177.02,674.00 C174.97,667.98 173.79,661.85 172.99,653.00 C170.51,625.49 170.15,622.39 169.09,619.68 C168.49,618.14 168.00,614.45 168.00,611.50 C168.00,605.80 166.65,601.02 164.69,599.81 C163.78,599.25 163.50,576.26 163.50,503.79 L 163.50 408.50 L 166.25 404.61 C168.33,401.67 169.00,399.55 169.00,395.91 C169.00,393.26 169.68,388.51 170.50,385.34 C171.32,382.17 172.00,377.09 172.01,374.04 C172.03,364.02 174.92,343.44 176.95,338.84 C178.04,336.39 179.89,328.79 181.07,321.94 C182.58,313.22 184.21,307.41 186.54,302.50 C188.36,298.65 190.40,293.02 191.06,290.00 C191.72,286.98 193.77,282.02 195.61,279.00 C197.45,275.98 199.85,270.88 200.95,267.68 C202.04,264.48 203.99,260.61 205.28,259.08 C206.56,257.56 208.43,254.10 209.43,251.41 C210.44,248.71 212.50,245.15 214.02,243.50 C215.53,241.85 217.57,238.93 218.53,237.02 C219.50,235.10 222.14,231.62 224.40,229.29 L 228.50 225.03 L 527.86 225.02 L 827.23 225.00 L 831.13 229.25 C833.28,231.59 835.88,235.07 836.91,237.00 C837.94,238.93 839.73,241.36 840.89,242.40 C842.05,243.45 844.12,246.76 845.49,249.77 C846.87,252.77 849.30,256.72 850.90,258.53 C852.55,260.42 854.09,263.60 854.49,265.94 C854.87,268.20 856.70,272.25 858.56,274.96 C860.51,277.79 862.66,282.76 863.62,286.69 C864.55,290.43 866.60,296.11 868.19,299.30 C870.27,303.48 871.76,309.15 873.49,319.54 C874.81,327.48 876.77,335.96 877.85,338.39 C880.48,344.34 880.74,345.87 882.47,366.00 C883.29,375.62 884.43,385.07 884.99,386.99 C885.54,388.91 886.00,392.45 886.00,394.84 C886.00,399.34 888.63,406.35 890.00,405.50 C890.42,405.24 891.04,406.03 891.37,407.26 C891.70,408.49 891.98,451.88 891.99,503.68 C892.00,580.27 891.75,598.10 890.68,599.18 C888.60,601.27 887.00,606.88 887.00,612.08 C887.00,614.72 886.49,618.14 885.87,619.68 C884.76,622.49 883.87,629.92 882.03,652.16 C881.43,659.39 880.29,665.84 879.01,669.16 C876.61,675.43 874.47,684.30 873.52,692.00 C872.56,699.78 871.27,704.67 868.52,711.00 C867.21,714.03 865.36,719.57 864.43,723.31 C863.49,727.06 861.66,731.70 860.35,733.62 C859.05,735.54 857.06,739.90 855.92,743.31 C854.79,746.71 852.79,751.08 851.48,753.00 C850.17,754.92 848.12,758.70 846.94,761.39 C845.75,764.09 843.37,767.76 841.64,769.55 C839.91,771.34 837.45,774.54 836.17,776.66 C834.89,778.77 831.84,782.75 829.40,785.50 ZM 660.34 565.02 C669.78,566.10 700.49,566.10 709.85,565.02 C715.19,564.41 719.34,563.33 721.35,562.04 C723.08,560.92 727.42,558.57 731.00,556.82 C734.58,555.07 739.53,551.91 742.00,549.81 C744.47,547.70 750.33,542.81 755.00,538.93 C759.67,535.05 764.40,531.09 765.50,530.14 C770.00,526.21 779.82,511.25 781.60,505.61 C783.44,499.77 788.14,493.35 789.82,494.39 C790.31,494.69 790.99,490.56 791.35,485.22 C792.65,465.50 791.75,426.42 790.02,427.49 C788.24,428.59 784.93,424.36 782.38,417.76 C780.84,413.77 777.88,408.52 775.79,406.11 C773.71,403.69 772.00,401.33 772.00,400.85 C772.00,400.37 769.64,397.35 766.75,394.13 C763.86,390.91 760.15,386.14 758.50,383.52 C756.37,380.14 753.90,377.89 750.00,375.79 C746.97,374.16 743.07,371.47 741.33,369.80 C739.46,368.01 734.96,365.65 730.33,364.03 C724.23,361.89 722.06,360.60 720.50,358.18 L 718.50 355.08 L 653.04 355.00 L 652.39 357.59 C651.71,360.27 646.89,362.99 640.17,364.46 C638.38,364.86 634.86,366.95 632.35,369.13 C629.84,371.30 625.16,374.41 621.95,376.03 C616.86,378.59 615.56,379.89 611.92,386.03 C609.61,389.90 606.86,393.54 605.81,394.10 C604.76,394.67 602.40,397.46 600.57,400.31 C598.74,403.17 596.33,406.32 595.21,407.32 C594.10,408.32 592.63,410.57 591.96,412.32 C591.29,414.07 588.77,419.81 586.36,425.08 C582.24,434.09 581.91,435.48 580.84,448.31 C579.97,458.59 579.97,465.04 580.84,474.49 C581.88,485.71 582.41,487.91 585.88,495.27 C588.02,499.80 590.55,505.68 591.50,508.36 C592.46,511.03 594.46,514.63 595.95,516.36 C597.44,518.08 600.10,521.63 601.87,524.24 C603.64,526.85 608.10,531.45 611.79,534.47 C615.48,537.49 621.65,542.67 625.50,545.99 C629.35,549.31 635.05,553.30 638.16,554.85 C641.27,556.40 646.14,559.17 648.99,561.00 C652.75,563.41 655.87,564.51 660.34,565.02 ZM 345.00 564.99 C354.87,566.09 383.43,566.11 392.95,565.01 C399.79,564.23 402.44,563.40 406.95,560.63 C410.00,558.75 414.25,556.49 416.38,555.60 C418.52,554.71 421.97,552.53 424.04,550.74 C426.12,548.96 432.23,543.90 437.63,539.50 C443.02,535.10 448.46,530.38 449.71,529.00 C455.52,522.62 463.08,511.27 464.60,506.63 C465.53,503.81 467.79,498.58 469.63,495.00 C473.81,486.89 474.96,479.25 474.96,459.50 C474.97,443.27 473.50,433.68 470.16,427.98 C469.04,426.06 466.79,421.03 465.16,416.79 C462.36,409.48 459.97,405.97 450.40,395.14 C448.15,392.59 444.68,387.93 442.69,384.79 C440.04,380.60 437.67,378.30 433.79,376.14 C430.88,374.51 426.45,371.51 423.95,369.47 C421.19,367.22 416.68,364.91 412.45,363.59 C406.92,361.87 405.09,360.78 403.50,358.25 L 401.50 355.08 L 368.75 355.04 C340.29,355.01 336.00,355.20 336.00,356.50 C336.00,359.23 332.21,361.85 325.27,363.92 C320.59,365.31 317.47,366.95 315.46,369.08 C313.83,370.79 310.02,373.45 307.00,374.99 C300.73,378.19 298.73,380.18 293.65,388.25 C291.65,391.41 289.59,394.00 289.06,394.00 C288.53,394.00 286.66,396.14 284.90,398.75 C283.15,401.36 280.44,404.86 278.88,406.52 C277.32,408.18 275.13,412.21 274.01,415.47 C271.44,422.95 269.54,425.84 266.45,427.02 L 264.00 427.95 L 264.00 494.75 L 266.81 495.31 C269.79,495.91 270.88,497.62 274.02,506.63 C275.85,511.86 284.06,523.92 289.56,529.43 C291.24,531.12 295.97,535.28 300.06,538.68 C304.15,542.08 309.75,546.77 312.50,549.10 C315.25,551.43 319.92,554.40 322.87,555.71 C325.82,557.01 329.65,559.12 331.37,560.39 C335.62,563.53 337.44,564.14 345.00,564.99 ZM 392.50 523.90 C390.24,524.52 380.01,524.97 369.00,524.95 C347.51,524.91 344.40,524.31 338.50,519.13 C336.54,517.42 333.20,515.12 331.07,514.03 C328.93,512.95 326.13,510.75 324.84,509.16 C323.55,507.57 321.20,505.44 319.62,504.43 C317.93,503.36 315.54,500.09 313.86,496.55 C312.27,493.22 309.90,489.04 308.59,487.26 C305.57,483.14 303.99,474.22 304.03,461.42 C304.08,445.45 305.49,437.17 308.96,432.50 C310.60,430.30 313.08,426.38 314.47,423.78 C315.86,421.18 318.38,418.04 320.07,416.79 C321.75,415.55 324.07,413.01 325.21,411.16 C326.60,408.91 329.33,406.81 333.40,404.86 C336.75,403.25 341.52,400.72 344.00,399.22 C348.43,396.54 348.80,396.50 368.25,396.17 L 368.26 396.17 C381.25,395.96 386.33,395.88 390.89,397.35 C393.82,398.30 396.54,399.88 401.00,402.48 C402.38,403.28 405.25,404.71 407.39,405.65 C409.59,406.62 412.11,408.77 413.19,410.60 C414.24,412.38 416.66,415.03 418.57,416.48 C420.47,417.94 423.10,421.23 424.41,423.81 C425.71,426.39 427.74,429.37 428.92,430.43 C433.06,434.18 434.49,441.96 434.42,460.50 C434.35,478.74 433.43,484.14 429.61,488.70 C428.32,490.24 425.85,494.31 424.12,497.75 C422.39,501.19 420.53,504.00 420.00,504.00 C419.46,504.00 417.10,506.06 414.76,508.57 C412.42,511.08 408.92,513.80 407.00,514.62 C405.08,515.43 401.92,517.61 400.00,519.46 C398.08,521.31 394.70,523.31 392.50,523.90 ZM 711.50 523.12 C708.02,524.72 704.76,524.96 686.50,524.96 C668.33,524.96 664.96,524.71 661.50,523.14 C659.30,522.14 656.86,520.54 656.07,519.59 C655.28,518.63 652.82,516.93 650.60,515.79 C644.24,512.55 633.25,502.05 631.45,497.50 C630.58,495.30 628.46,491.73 626.74,489.57 C622.19,483.85 621.00,477.81 621.00,460.49 C621.00,443.69 622.57,435.16 626.42,431.00 C627.69,429.62 629.91,426.46 631.34,423.96 C632.77,421.46 635.42,418.05 637.22,416.39 C639.03,414.72 641.72,411.75 643.22,409.77 C645.08,407.31 647.49,405.66 650.85,404.55 C653.55,403.65 656.57,402.03 657.56,400.94 C661.13,396.99 668.48,395.85 688.22,396.19 C705.23,396.48 706.81,396.67 711.00,398.88 C713.47,400.19 718.52,402.77 722.21,404.60 C726.74,406.85 729.41,408.90 730.44,410.89 C731.28,412.51 733.34,414.82 735.01,416.01 C736.68,417.20 739.00,420.03 740.16,422.31 C741.32,424.59 743.59,428.09 745.19,430.09 C749.99,436.06 751.00,441.33 751.00,460.48 C751.00,479.12 749.77,486.12 745.86,489.59 C744.68,490.64 742.81,493.52 741.71,496.00 C739.35,501.30 728.99,511.94 723.42,514.79 C721.26,515.89 718.60,517.80 717.50,519.03 C716.40,520.27 713.70,522.11 711.50,523.12 ZM 704.62 520.51 C706.58,519.70 709.60,517.83 711.34,516.36 C713.08,514.89 716.84,512.65 719.71,511.37 C722.57,510.10 725.69,507.88 726.64,506.43 C727.59,504.98 730.07,502.72 732.15,501.40 C735.22,499.47 736.24,497.98 737.52,493.59 C738.38,490.61 740.33,486.45 741.84,484.34 C745.74,478.90 746.77,475.61 747.44,466.50 C748.30,454.83 746.64,442.53 743.68,438.63 C740.75,434.78 736.00,425.94 736.00,424.34 C736.00,423.70 734.26,421.79 732.13,420.10 C730.00,418.42 727.72,415.74 727.06,414.15 C725.73,410.92 723.58,409.60 717.00,407.96 C714.53,407.35 710.14,405.53 707.27,403.92 C702.09,401.03 701.85,401.00 685.99,401.00 C670.71,401.00 669.78,401.11 666.23,403.43 C664.18,404.76 659.22,406.83 655.22,408.03 C649.95,409.61 647.46,410.93 646.22,412.79 C645.27,414.21 642.86,417.02 640.86,419.04 C638.86,421.06 636.26,424.89 635.08,427.55 C633.90,430.21 631.75,433.95 630.30,435.85 C625.92,441.60 625.09,445.44 625.09,460.00 C625.09,474.47 625.81,477.83 630.35,484.42 C631.83,486.58 633.75,490.76 634.60,493.71 C635.86,498.02 636.90,499.54 639.90,501.44 C641.95,502.73 644.41,504.98 645.36,506.43 C646.31,507.88 649.66,510.20 652.79,511.59 C655.93,512.97 659.62,515.18 661.00,516.50 C665.85,521.14 669.40,521.92 685.78,521.96 C697.11,521.99 701.98,521.62 704.62,520.51 ZM 387.10 520.86 C388.97,520.23 392.40,518.18 394.72,516.31 C397.04,514.44 401.15,512.00 403.85,510.88 C406.68,509.70 409.31,507.79 410.08,506.34 C410.82,504.97 413.19,502.65 415.37,501.18 C418.40,499.12 419.70,497.31 420.98,493.37 C421.89,490.54 424.07,486.01 425.81,483.29 C433.09,471.95 432.95,447.65 425.54,436.49 C423.59,433.55 421.15,429.19 420.13,426.79 C419.10,424.40 416.69,421.24 414.77,419.78 C412.86,418.32 410.75,415.80 410.08,414.19 C408.73,410.92 406.59,409.60 400.00,407.96 C397.52,407.35 393.14,405.53 390.27,403.92 C385.08,401.03 384.86,401.00 368.92,401.00 C354.60,401.00 352.51,401.22 350.10,402.93 C347.00,405.14 341.45,407.40 335.21,409.00 C331.64,409.91 330.42,410.92 327.91,415.00 C326.25,417.69 324.06,420.16 323.06,420.48 C322.05,420.80 319.78,424.09 318.02,427.78 C316.27,431.48 313.75,435.92 312.44,437.65 C309.23,441.88 308.05,447.62 308.02,459.11 C307.99,471.84 309.31,478.21 313.03,483.40 C314.72,485.74 316.73,489.79 317.52,492.39 C318.61,496.01 320.59,498.73 325.98,503.98 C330.02,507.91 334.25,511.12 335.90,511.48 C337.47,511.82 340.65,513.72 342.96,515.70 C345.27,517.67 348.81,519.88 350.83,520.60 C355.52,522.28 382.32,522.46 387.10,520.86 ZM 570.75 660.35 C574.30,659.93 576.00,659.26 576.00,658.32 C576.00,655.52 580.69,652.21 586.29,651.04 C589.36,650.41 593.37,648.79 595.19,647.46 C597.01,646.13 601.78,643.38 605.79,641.36 C614.73,636.86 631.10,621.24 633.04,615.37 C634.38,611.32 633.82,602.40 632.02,599.04 C631.39,597.87 628.10,594.86 624.70,592.36 C618.54,587.83 618.48,587.81 611.51,588.19 C605.19,588.53 603.86,589.00 598.00,592.95 C594.42,595.36 589.90,598.83 587.95,600.67 C586.00,602.50 580.75,605.53 576.27,607.39 C571.80,609.25 566.72,611.77 565.00,613.00 C558.79,617.42 554.36,618.00 527.09,617.96 C499.76,617.91 497.37,617.57 490.20,612.68 C488.16,611.29 482.63,608.99 477.91,607.57 C470.48,605.33 468.87,604.43 466.08,600.95 C464.30,598.74 461.02,595.71 458.79,594.22 C456.56,592.72 453.55,590.69 452.12,589.70 C450.07,588.29 447.97,587.97 442.50,588.21 C436.17,588.49 435.02,588.88 430.50,592.31 C423.90,597.32 422.00,600.95 422.00,608.54 C422.00,613.54 422.52,615.43 424.95,619.26 C429.48,626.40 440.73,636.83 447.48,640.13 C450.77,641.73 454.82,644.35 456.48,645.94 C458.26,647.65 461.96,649.54 465.50,650.54 C473.87,652.93 476.67,654.54 477.39,657.41 C477.92,659.54 478.68,659.94 482.76,660.27 C491.18,660.93 565.33,661.00 570.75,660.35 Z" fill="rgb(117,144,232)"/>
<path d="M 900.36 952.04 L 900.95 955.00 L 155.00 955.00 L 155.00 952.02 C155.00,950.16 153.96,947.88 152.25,945.99 C149.65,943.12 143.59,941.12 129.29,938.40 C127.99,938.15 126.42,936.57 125.45,934.54 C124.25,932.00 122.65,930.65 119.36,929.39 C116.06,928.13 114.55,926.85 113.56,924.48 C112.82,922.72 110.29,919.98 107.94,918.39 C104.81,916.28 103.27,914.34 102.24,911.23 C101.27,908.31 99.89,906.48 97.87,905.43 C94.07,903.47 93.34,901.39 91.49,887.23 C90.64,880.80 89.48,873.77 88.90,871.61 C87.66,867.02 83.05,862.00 80.08,862.00 L 78.00 862.00 L 78.02 709.75 C78.03,611.09 78.37,558.03 79.00,559.00 C79.65,560.00 79.97,554.77 79.98,543.28 C80.00,528.39 80.20,526.14 81.50,526.64 C82.43,526.99 83.00,528.51 83.00,530.61 L 83.00 534.00 L 117.38 534.00 C147.18,534.00 151.93,533.79 153.04,532.45 C154.06,531.22 154.49,531.17 155.15,532.20 C155.66,533.02 155.98,532.10 155.98,529.75 C156.00,527.11 156.44,526.00 157.48,526.00 C158.66,526.00 158.84,526.91 158.34,530.50 C157.93,533.55 158.09,535.00 158.86,535.00 C159.65,535.00 160.00,538.69 160.00,546.92 C160.00,553.47 160.40,558.98 160.88,559.17 C161.37,559.35 161.97,577.40 162.21,599.27 L 162.66 639.04 L 165.33 641.82 C167.73,644.33 168.00,645.35 168.00,652.05 C168.00,656.15 168.47,664.45 169.04,670.49 C170.00,680.55 170.38,681.90 173.54,686.49 C176.43,690.69 177.16,692.89 178.03,700.00 C179.26,710.15 180.34,713.67 183.15,716.66 C184.47,718.06 186.13,722.58 187.57,728.68 C189.49,736.86 190.36,738.86 192.89,740.97 C195.19,742.90 196.25,745.01 197.35,749.90 C198.48,754.88 199.47,756.81 201.82,758.66 C203.68,760.11 205.49,762.95 206.50,766.00 C207.41,768.74 209.19,771.79 210.45,772.78 C211.72,773.78 213.66,776.37 214.77,778.55 C215.88,780.72 218.75,784.28 221.15,786.45 C225.22,790.15 225.92,790.42 232.00,790.56 C236.16,790.66 236.79,790.56 233.75,790.30 C231.60,790.12 230.33,789.89 229.42,789.35 C230.37,789.90 231.76,790.09 234.25,790.27 C237.14,790.47 371.23,790.61 532.23,790.57 L 818.90 790.50 L 817.50 790.70 L 822.39 790.85 C829.78,791.08 835.31,787.89 839.50,781.00 C841.37,777.92 843.88,774.52 845.07,773.45 C846.26,772.38 848.25,769.25 849.48,766.50 C850.72,763.75 852.90,760.43 854.32,759.12 C856.06,757.52 857.30,754.87 858.07,751.12 C858.88,747.24 860.25,744.37 862.51,741.87 C865.41,738.65 868.00,731.48 868.00,726.68 C868.00,726.01 869.34,723.83 870.98,721.84 C875.16,716.77 875.96,714.13 876.88,702.30 C877.50,694.40 878.17,691.26 879.68,689.20 C880.78,687.72 882.22,685.47 882.89,684.21 C884.74,680.75 887.00,663.83 887.00,653.52 C887.00,645.00 887.17,644.21 889.50,642.19 L 892.00 640.01 L 892.00 618.94 C892.00,601.50 891.77,598.09 890.68,599.18 C891.75,598.10 892.00,580.27 891.99,503.68 C891.98,451.88 891.70,408.49 891.37,407.26 C891.70,408.49 892.08,448.65 892.20,496.50 C892.32,540.50 892.53,572.77 892.70,572.77 C892.72,572.77 892.73,572.52 892.75,572.02 C892.93,565.70 893.50,560.10 894.03,559.57 C894.57,559.03 895.00,553.28 895.00,546.77 C895.00,538.21 895.35,534.81 896.25,534.49 C896.94,534.24 914.94,533.92 936.25,533.77 L 975.00 533.50 L 975.00 546.05 C975.00,553.65 975.42,559.02 976.07,559.67 C977.27,560.87 978.83,854.58 977.66,859.22 C977.19,861.10 976.13,862.03 973.93,862.52 C968.28,863.76 966.02,869.40 963.59,888.37 C962.06,900.39 960.56,904.37 957.19,905.44 C955.32,906.03 954.22,907.78 952.05,913.59 C951.33,915.50 949.59,917.30 947.48,918.31 C945.40,919.30 943.30,921.46 942.08,923.84 C940.65,926.65 938.96,928.20 936.07,929.36 C933.45,930.40 931.19,932.33 929.59,934.86 C927.34,938.43 926.65,938.81 921.46,939.46 C907.41,941.22 899.18,946.13 900.36,952.04 ZM 974.93 510.19 C974.97,512.77 974.56,515.16 974.01,515.49 C973.42,515.86 973.29,515.38 973.70,514.30 C974.27,512.77 974.14,512.69 972.82,513.76 C971.62,514.74 962.81,514.97 933.88,514.76 L 896.50 514.50 L 896.50 504.50 L 934.23 504.24 L 971.96 503.98 L 972.64 506.70 C973.26,509.16 973.40,509.24 974.09,507.46 C974.63,506.09 974.88,506.92 974.93,510.19 ZM 153.50 504.50 L 153.50 514.50 L 116.75 514.66 L 80.00 514.81 L 80.00 505.14 L 85.25 504.52 C88.14,504.18 104.68,504.04 122.00,504.20 ZM 833.19 780.88 C834.43,779.26 835.53,777.72 836.17,776.66 C836.66,775.85 837.32,774.88 838.05,773.90 C838.03,773.93 838.01,773.97 837.99,774.00 C837.24,775.44 835.30,778.20 833.19,780.88 ZM 841.98 769.19 C843.06,767.97 844.34,766.14 845.41,764.32 C844.19,766.56 842.84,768.49 841.98,769.19 ZM 848.01 759.11 C849.14,756.85 850.51,754.42 851.48,753.00 C852.79,751.08 854.79,746.71 855.92,743.31 C854.79,746.71 852.80,751.08 851.50,753.00 C850.62,754.32 849.26,756.71 848.01,759.11 Z" fill="rgb(247,169,36)"/>
<path d="M 225.64 786.25 C226.95,788.31 228.26,790.00 228.54,790.00 C228.97,790.00 228.69,789.13 227.94,787.80 C228.38,788.51 228.81,789.00 229.42,789.35 L 229.42 789.35 C230.33,789.89 231.60,790.12 233.75,790.30 C236.79,790.56 236.16,790.66 232.00,790.56 C225.92,790.42 225.22,790.15 221.15,786.45 C218.75,784.28 215.88,780.72 214.77,778.55 C213.66,776.37 211.72,773.78 210.45,772.78 C209.19,771.79 207.41,768.74 206.50,766.00 C205.49,762.95 203.68,760.11 201.82,758.66 C199.47,756.81 198.48,754.88 197.35,749.90 C196.25,745.01 195.19,742.90 192.89,740.97 C190.36,738.86 189.49,736.86 187.57,728.68 C186.13,722.58 184.47,718.06 183.15,716.66 C180.34,713.67 179.26,710.15 178.03,700.00 C177.16,692.89 176.43,690.69 173.54,686.49 C170.38,681.90 170.00,680.55 169.04,670.49 C168.47,664.45 168.00,656.15 168.00,652.05 C168.00,645.35 167.73,644.33 165.33,641.82 L 162.66 639.04 L 162.21 599.27 C161.97,577.40 161.37,559.35 160.88,559.17 C160.40,558.98 160.00,553.47 160.00,546.92 C160.00,538.69 159.65,535.00 158.86,535.00 C158.09,535.00 157.93,533.55 158.34,530.50 C158.84,526.91 158.66,526.00 157.48,526.00 C156.44,526.00 156.00,527.11 155.98,529.75 C155.98,532.10 155.66,533.02 155.15,532.20 C154.49,531.17 154.06,531.22 153.04,532.45 C151.93,533.79 147.18,534.00 117.38,534.00 L 83.00 534.00 L 83.00 530.61 C83.00,528.51 82.43,526.99 81.50,526.64 C80.20,526.14 80.00,528.39 79.98,543.28 C79.97,554.77 79.65,560.00 79.00,559.00 C78.37,558.03 78.03,611.09 78.02,709.75 L 78.00 862.00 L 80.08 862.00 C83.05,862.00 87.66,867.02 88.90,871.61 C89.48,873.77 90.64,880.80 91.49,887.23 C93.34,901.39 94.07,903.47 97.87,905.43 C99.89,906.48 101.27,908.31 102.24,911.23 C103.27,914.34 104.81,916.28 107.94,918.39 C110.29,919.98 112.82,922.72 113.56,924.48 C114.55,926.85 116.06,928.13 119.36,929.39 C122.65,930.65 124.25,932.00 125.45,934.54 C126.42,936.57 127.99,938.15 129.29,938.40 C143.59,941.12 149.65,943.12 152.25,945.99 C153.96,947.88 155.00,950.16 155.00,952.02 L 155.00 954.21 C151.92,954.18 150.21,954.14 150.00,954.11 C147.54,953.68 146.40,952.91 146.17,951.50 C145.62,948.11 142.76,946.10 134.20,943.07 C128.24,940.96 124.44,938.83 120.41,935.33 C112.29,928.28 100.00,915.97 100.00,914.89 C100.00,914.37 98.13,911.93 95.85,909.46 C92.22,905.51 91.35,903.58 88.77,893.73 C85.25,880.30 83.67,876.70 80.58,875.04 C78.85,874.12 78.08,872.61 77.62,869.26 C76.79,863.19 76.82,358.97 77.66,250.71 C78.03,203.62 78.70,165.32 79.16,165.60 C79.62,165.89 80.00,165.36 80.00,164.43 C80.00,163.50 80.84,162.01 81.86,161.12 C82.88,160.23 85.29,156.08 87.22,151.91 C89.15,147.74 91.40,144.06 92.24,143.74 C93.07,143.42 95.18,141.04 96.93,138.45 C103.24,129.10 109.17,123.16 114.88,120.45 C117.94,119.00 121.83,116.60 123.53,115.11 C125.38,113.49 129.19,111.77 133.06,110.82 C144.69,107.95 147.40,107.14 156.50,103.80 L 165.50 100.50 L 508.50 100.22 C697.15,100.07 861.19,100.32 873.04,100.77 C894.49,101.59 894.62,101.61 901.23,104.80 C904.88,106.56 908.64,108.00 909.58,108.00 C910.52,108.00 915.33,109.00 920.26,110.23 C926.40,111.75 929.90,113.19 931.36,114.78 C932.54,116.06 936.42,118.62 940.00,120.47 C946.47,123.81 953.57,130.33 958.03,137.00 C959.32,138.93 961.70,142.05 963.33,143.95 C964.95,145.84 967.30,149.69 968.54,152.50 C969.78,155.30 972.31,159.83 974.15,162.55 L 977.50 167.50 L 977.76 520.72 L 977.92 744.27 C977.59,660.08 976.77,560.37 976.07,559.67 C975.42,559.02 975.00,553.65 975.00,546.05 L 975.00 533.50 L 936.25 533.77 C914.94,533.92 896.94,534.24 896.25,534.49 C895.35,534.81 895.00,538.21 895.00,546.77 C895.00,553.28 894.57,559.03 894.03,559.57 C893.50,560.10 892.93,565.70 892.75,572.02 C892.73,572.52 892.72,572.77 892.70,572.77 C892.53,572.77 892.32,540.50 892.20,496.50 C892.08,448.65 891.70,408.49 891.37,407.26 C891.04,406.03 890.42,405.24 890.00,405.50 C889.30,405.93 888.27,404.33 887.44,402.05 C888.28,404.32 889.32,405.92 890.03,405.48 C890.48,405.20 891.06,405.77 891.31,406.74 C891.56,407.71 891.82,403.05 891.88,396.38 C891.99,385.68 891.77,383.97 890.00,381.73 C888.90,380.33 888.00,377.91 887.99,376.34 C887.98,374.78 887.31,371.29 886.49,368.59 C885.67,365.89 884.98,359.82 884.97,355.09 C884.92,344.32 882.94,333.00 879.66,324.81 C878.20,321.15 876.52,313.81 875.68,307.39 C874.45,297.94 873.79,295.69 871.23,292.16 C869.28,289.46 867.80,285.72 866.98,281.41 C866.14,276.96 864.60,273.13 862.24,269.66 C860.31,266.82 858.15,262.33 857.44,259.69 C856.08,254.60 853.53,250.00 852.09,250.00 C851.62,250.00 850.22,247.52 848.99,244.48 C847.71,241.32 845.55,238.11 843.95,236.96 C842.41,235.86 840.64,233.44 840.02,231.57 C839.40,229.69 837.68,227.34 836.20,226.33 C835.52,225.87 834.25,225.52 827.47,225.27 C824.83,225.16 821.34,225.08 816.73,225.00 C787.97,224.53 715.26,224.50 527.82,224.50 L 222.15 224.50 L 219.39 226.56 C217.88,227.69 216.13,230.12 215.51,231.96 C214.89,233.81 212.96,236.51 211.22,237.96 C209.48,239.41 207.40,242.45 206.60,244.72 C205.80,246.98 203.60,251.08 201.72,253.82 C199.83,256.57 197.79,260.79 197.18,263.21 C196.57,265.62 194.72,269.46 193.07,271.74 C191.28,274.22 189.25,279.12 188.02,283.92 C186.89,288.34 184.88,293.57 183.54,295.53 C181.19,299.00 180.07,303.14 178.14,315.50 C177.63,318.80 176.07,324.20 174.68,327.50 C171.82,334.28 170.02,345.46 169.96,356.82 C169.93,361.05 169.26,366.30 168.47,368.50 C167.68,370.70 167.02,374.23 167.02,376.34 C167.01,378.65 166.20,381.20 165.00,382.73 C163.23,384.98 163.01,386.71 163.08,397.88 C163.11,403.16 163.28,407.34 163.50,408.70 L 163.50 503.79 C163.50,576.26 163.78,599.25 164.69,599.81 C164.78,599.86 164.87,599.93 164.96,600.00 C164.50,599.98 163.94,599.20 163.69,598.25 C163.44,597.29 163.18,601.55 163.12,607.72 C163.00,618.71 163.06,618.99 165.87,622.22 C168.21,624.88 168.85,626.72 169.29,632.00 C171.33,656.24 173.08,669.26 175.02,674.60 C177.22,680.64 178.61,685.82 181.56,699.00 C182.48,703.12 184.08,707.69 185.12,709.15 C186.15,710.61 188.16,716.20 189.59,721.57 C191.02,726.94 193.22,732.95 194.48,734.92 C195.74,736.89 197.57,740.75 198.55,743.50 C199.53,746.25 201.39,749.95 202.69,751.72 C203.99,753.49 206.33,757.77 207.89,761.22 C209.45,764.67 211.74,768.40 212.97,769.50 C214.20,770.60 216.02,773.08 217.00,775.00 C217.98,776.92 219.79,779.40 221.02,780.50 C222.25,781.60 224.33,784.19 225.64,786.25 ZM 974.93 510.19 C974.88,506.92 974.63,506.09 974.09,507.46 C973.40,509.24 973.26,509.16 972.64,506.70 L 971.96 503.98 L 934.23 504.24 L 896.50 504.50 L 896.50 514.50 L 933.88 514.76 C962.81,514.97 971.62,514.74 972.82,513.76 C974.14,512.69 974.27,512.77 973.70,514.30 C973.29,515.38 973.42,515.86 974.01,515.49 C974.56,515.16 974.97,512.77 974.93,510.19 ZM 829.40 785.50 C829.51,785.38 829.62,785.25 829.73,785.12 C828.56,786.57 827.56,787.85 827.12,788.50 C826.39,789.60 827.67,788.47 829.97,786.00 C832.27,783.53 835.34,779.70 836.79,777.50 C838.24,775.30 841.13,771.60 843.21,769.27 C845.30,766.95 847.00,764.41 847.00,763.63 C847.00,762.86 848.62,759.88 850.59,757.00 C852.57,754.13 855.01,749.37 856.03,746.41 C857.05,743.46 859.43,738.22 861.33,734.77 C863.22,731.32 865.34,726.03 866.02,723.00 C866.71,719.97 868.40,715.25 869.78,712.51 C871.28,709.51 873.04,703.00 874.17,696.22 C875.21,690.00 877.45,680.79 879.14,675.74 C881.25,669.44 882.64,662.49 883.58,653.54 C886.47,626.03 886.82,623.56 887.91,623.20 C891.04,622.15 891.85,620.25 891.98,611.76 C891.99,613.84 892.00,616.22 892.00,618.94 L 892.00 640.01 L 889.50 642.19 C887.17,644.21 887.00,645.00 887.00,653.52 C887.00,663.83 884.74,680.75 882.89,684.21 C882.22,685.47 880.78,687.72 879.68,689.20 C878.17,691.26 877.50,694.40 876.88,702.30 C875.96,714.13 875.16,716.77 870.98,721.84 C869.34,723.83 868.00,726.01 868.00,726.68 C868.00,731.48 865.41,738.65 862.51,741.87 C860.25,744.37 858.88,747.24 858.07,751.12 C857.30,754.87 856.06,757.52 854.32,759.12 C852.90,760.43 850.72,763.75 849.48,766.50 C848.25,769.25 846.26,772.38 845.07,773.45 C843.88,774.52 841.37,777.92 839.50,781.00 C835.31,787.89 829.78,791.08 822.39,790.85 L 817.50 790.70 L 818.90 790.50 L 824.95 790.50 ZM 153.50 504.50 L 122.00 504.20 C104.68,504.04 88.14,504.18 85.25,504.52 L 80.00 505.14 L 80.00 514.81 L 116.75 514.66 L 153.50 514.50 ZM 900.36 952.04 C899.18,946.13 907.41,941.22 921.46,939.46 C926.65,938.81 927.34,938.43 929.59,934.86 C931.19,932.33 933.45,930.40 936.07,929.36 C938.96,928.20 940.65,926.65 942.08,923.84 C943.30,921.46 945.40,919.30 947.48,918.31 C949.59,917.30 951.33,915.50 952.05,913.59 C954.22,907.78 955.32,906.03 957.19,905.44 C960.56,904.37 962.06,900.39 963.59,888.37 C966.02,869.40 968.28,863.76 973.93,862.52 C976.13,862.03 977.19,861.10 977.66,859.22 C977.82,858.59 977.93,852.65 977.99,842.84 L 978.01 873.94 L 975.02 875.49 C971.14,877.49 969.87,880.19 966.48,893.50 C964.12,902.79 963.10,905.14 959.95,908.61 C957.90,910.86 955.66,913.79 954.97,915.11 C954.29,916.42 950.45,920.65 946.44,924.50 C931.42,938.93 929.84,940.09 921.16,943.01 C912.05,946.06 909.00,948.20 909.00,951.52 C909.00,953.39 908.29,953.83 904.36,954.36 C904.14,954.39 902.95,954.42 900.84,954.45 ZM 833.19 780.88 C835.30,778.20 837.24,775.44 837.99,774.00 C838.01,773.97 838.03,773.93 838.05,773.90 L 838.14 773.78 C838.10,773.85 838.06,773.93 838.02,774.00 C837.02,775.92 834.46,779.53 832.34,782.00 C832.24,782.11 832.15,782.22 832.06,782.33 C832.44,781.84 832.82,781.36 833.19,780.88 ZM 227.67 787.32 C226.33,785.05 223.93,781.74 221.48,778.98 C223.94,781.75 226.64,785.34 227.48,786.96 C227.54,787.08 227.61,787.20 227.67,787.32 ZM 167.16 604.25 C167.69,606.27 168.00,608.78 168.00,611.50 C168.00,614.45 168.49,618.13 169.09,619.68 C168.49,618.13 168.00,614.49 168.00,611.58 C168.00,609.05 167.66,606.39 167.16,604.25 ZM 168.55 400.02 C168.86,398.79 169.00,397.45 169.00,395.91 C169.00,397.51 168.87,398.81 168.55,400.02 Z" fill="rgb(252,195,77)"/>
<path d="M 0.00 0.00 L 1024.00 0.00 L 1024.00 1024.00 L 0.00 1024.00 ZM 133.90 951.15 C134.90,954.02 135.10,954.09 140.72,953.80 C145.86,953.53 146.46,953.28 146.17,951.50 C146.40,952.91 147.54,953.68 150.00,954.11 C150.21,954.14 151.92,954.18 155.00,954.21 L 155.00 955.00 L 900.95 955.00 L 900.84 954.45 C902.95,954.42 904.14,954.39 904.36,954.36 C908.29,953.83 909.00,953.39 909.00,951.52 C909.00,949.68 909.93,948.21 912.30,946.74 C909.91,948.23 909.00,949.73 909.00,951.65 C909.00,953.83 909.39,954.00 914.55,954.00 C919.78,954.00 920.16,953.83 921.12,951.09 C921.77,949.21 923.25,947.78 925.31,947.02 C933.47,944.02 937.18,941.53 946.30,932.95 C951.69,927.89 957.66,921.31 959.56,918.33 C961.46,915.36 963.63,912.69 964.38,912.41 C965.76,911.88 967.38,908.51 970.48,899.75 C971.41,897.14 972.49,895.00 972.89,895.00 C973.29,895.00 974.61,894.08 975.81,892.96 C977.73,891.17 978.00,889.88 978.00,882.44 L 978.00 873.95 L 978.01 873.94 L 977.99 842.84 L 977.99 842.84 C978.13,822.39 978.08,785.16 977.92,744.27 L 977.76 520.72 L 977.50 167.50 L 977.49 167.49 C977.66,164.37 977.81,157.09 977.86,148.13 L 978.00 124.77 L 974.30 121.38 C971.46,118.78 969.99,116.12 967.99,109.98 C966.23,104.55 963.96,100.18 960.95,96.38 C952.86,86.19 944.56,77.82 940.50,75.76 C938.30,74.65 934.41,72.08 931.86,70.06 C928.05,67.04 925.37,65.97 916.97,64.09 C907.98,62.08 906.24,61.34 902.82,58.06 L 898.93 54.32 L 874.21 53.66 C841.93,52.80 213.99,52.81 181.70,53.66 L 156.90 54.32 L 153.21 57.70 C149.52,61.08 144.94,62.80 133.76,65.00 C129.74,65.80 126.77,67.18 123.82,69.65 C121.51,71.58 117.57,74.21 115.06,75.50 C110.32,77.93 102.00,85.96 97.97,92.00 C96.68,93.93 94.19,97.14 92.42,99.14 C90.53,101.28 88.53,105.19 87.56,108.64 C85.02,117.68 84.06,119.63 81.48,121.01 C80.17,121.71 78.62,123.64 78.05,125.29 C77.34,127.31 77.08,153.16 77.24,203.90 C77.37,243.07 77.43,261.39 77.50,261.39 C77.56,261.39 77.63,247.78 77.75,222.20 C77.92,184.63 78.36,165.10 79.01,165.51 C79.55,165.84 80.00,165.36 80.00,164.43 C80.00,165.36 79.62,165.89 79.16,165.60 C78.70,165.32 78.03,203.62 77.66,250.71 C76.82,358.97 76.79,863.19 77.62,869.26 C78.08,872.61 78.85,874.12 80.58,875.04 C82.46,876.05 83.79,877.79 85.33,882.04 C83.78,877.76 82.44,876.04 80.51,875.00 C78.96,874.17 77.97,872.61 77.71,870.61 C77.50,868.90 77.25,872.67 77.18,879.00 C77.10,885.33 77.36,890.96 77.77,891.52 C78.17,892.09 79.72,893.32 81.21,894.27 C83.21,895.54 84.44,897.75 85.94,902.81 C87.19,907.01 88.98,910.56 90.60,912.06 C92.04,913.40 94.68,916.75 96.47,919.50 C98.26,922.25 102.82,927.35 106.61,930.83 C110.40,934.31 114.86,938.43 116.51,939.98 C119.39,942.67 122.62,944.40 129.69,947.01 C131.77,947.78 133.23,949.21 133.90,951.15 ZM 660.34 565.02 C655.87,564.51 652.75,563.41 648.99,561.00 C646.14,559.17 641.27,556.40 638.16,554.85 C635.05,553.30 629.35,549.31 625.50,545.99 C621.65,542.67 615.48,537.49 611.79,534.47 C608.10,531.45 603.64,526.85 601.87,524.24 C600.10,521.63 597.44,518.08 595.95,516.36 C594.46,514.63 592.46,511.03 591.50,508.36 C590.55,505.68 588.02,499.80 585.88,495.27 C582.41,487.91 581.88,485.71 580.84,474.49 C579.97,465.04 579.97,458.59 580.84,448.31 C581.91,435.48 582.24,434.09 586.36,425.08 C588.77,419.81 591.29,414.07 591.96,412.32 C592.63,410.57 594.10,408.32 595.21,407.32 C596.33,406.32 598.74,403.17 600.57,400.31 C602.40,397.46 604.76,394.67 605.81,394.10 C606.86,393.54 609.61,389.90 611.92,386.03 C615.56,379.89 616.86,378.59 621.95,376.03 C625.16,374.41 629.84,371.30 632.35,369.13 C634.86,366.95 638.38,364.86 640.17,364.46 C646.89,362.99 651.71,360.27 652.39,357.59 L 653.04 355.00 L 718.50 355.08 L 720.50 358.18 C722.06,360.60 724.23,361.89 730.33,364.03 C734.96,365.65 739.46,368.01 741.33,369.80 C743.07,371.47 746.97,374.16 750.00,375.79 C753.90,377.89 756.37,380.14 758.50,383.52 C760.15,386.14 763.86,390.91 766.75,394.13 C769.64,397.35 772.00,400.37 772.00,400.85 C772.00,401.33 773.71,403.69 775.79,406.11 C777.88,408.52 780.84,413.77 782.38,417.76 C784.93,424.36 788.24,428.59 790.02,427.49 C791.75,426.42 792.65,465.50 791.35,485.22 C790.99,490.56 790.31,494.69 789.82,494.39 C788.14,493.35 783.44,499.77 781.60,505.61 C779.82,511.25 770.00,526.21 765.50,530.14 C764.40,531.09 759.67,535.05 755.00,538.93 C750.33,542.81 744.47,547.70 742.00,549.81 C739.53,551.91 734.58,555.07 731.00,556.82 C727.42,558.57 723.08,560.92 721.35,562.04 C719.34,563.33 715.19,564.41 709.85,565.02 C700.49,566.10 669.78,566.10 660.34,565.02 ZM 345.00 564.99 C337.44,564.14 335.62,563.53 331.37,560.39 C329.65,559.12 325.82,557.01 322.87,555.71 C319.92,554.40 315.25,551.43 312.50,549.10 C309.75,546.77 304.15,542.08 300.06,538.68 C295.97,535.28 291.24,531.12 289.56,529.43 C284.06,523.92 275.85,511.86 274.02,506.63 C270.88,497.62 269.79,495.91 266.81,495.31 L 264.00 494.75 L 264.00 427.95 L 266.45 427.02 C269.54,425.84 271.44,422.95 274.01,415.47 C275.13,412.21 277.32,408.18 278.88,406.52 C280.44,404.86 283.15,401.36 284.90,398.75 C286.66,396.14 288.53,394.00 289.06,394.00 C289.59,394.00 291.65,391.41 293.65,388.25 C298.73,380.18 300.73,378.19 307.00,374.99 C310.02,373.45 313.83,370.79 315.46,369.08 C317.47,366.95 320.59,365.31 325.27,363.92 C332.21,361.85 336.00,359.23 336.00,356.50 C336.00,355.20 340.29,355.01 368.75,355.04 L 401.50 355.08 L 403.50 358.25 C405.09,360.78 406.92,361.87 412.45,363.59 C416.68,364.91 421.19,367.22 423.95,369.47 C426.45,371.51 430.88,374.51 433.79,376.14 C437.67,378.30 440.04,380.60 442.69,384.79 C444.68,387.93 448.15,392.59 450.40,395.14 C459.97,405.97 462.36,409.48 465.16,416.79 C466.79,421.03 469.04,426.06 470.16,427.98 C473.50,433.68 474.97,443.27 474.96,459.50 C474.96,479.25 473.81,486.89 469.63,495.00 C467.79,498.58 465.53,503.81 464.60,506.63 C463.08,511.27 455.52,522.62 449.71,529.00 C448.46,530.38 443.02,535.10 437.63,539.50 C432.23,543.90 426.12,548.96 424.04,550.74 C421.97,552.53 418.52,554.71 416.38,555.60 C414.25,556.49 410.00,558.75 406.95,560.63 C402.44,563.40 399.79,564.23 392.95,565.01 C383.43,566.11 354.87,566.09 345.00,564.99 ZM 392.50 523.90 C394.70,523.31 398.08,521.31 400.00,519.46 C401.92,517.61 405.08,515.43 407.00,514.62 C408.92,513.80 412.42,511.08 414.76,508.57 C417.10,506.06 419.46,504.00 420.00,504.00 C420.53,504.00 422.39,501.19 424.12,497.75 C425.85,494.31 428.32,490.24 429.61,488.70 C433.43,484.14 434.35,478.74 434.42,460.50 C434.49,441.96 433.06,434.18 428.92,430.43 C427.74,429.37 425.71,426.39 424.41,423.81 C423.10,421.23 420.47,417.94 418.57,416.48 C416.66,415.03 414.24,412.38 413.19,410.60 C412.11,408.77 409.59,406.62 407.39,405.65 C405.25,404.71 402.38,403.28 401.00,402.48 C396.54,399.88 393.82,398.30 390.89,397.35 C386.33,395.88 381.25,395.96 368.26,396.17 L 368.25 396.17 C348.80,396.50 348.43,396.54 344.00,399.22 C341.52,400.72 336.75,403.25 333.40,404.86 C329.33,406.81 326.60,408.91 325.21,411.16 C324.07,413.01 321.75,415.55 320.07,416.79 C318.38,418.04 315.86,421.18 314.47,423.78 C313.08,426.38 310.60,430.30 308.96,432.50 C305.49,437.17 304.08,445.45 304.03,461.42 C303.99,474.22 305.57,483.14 308.59,487.26 C309.90,489.04 312.27,493.22 313.86,496.55 C315.54,500.09 317.93,503.36 319.62,504.43 C321.20,505.44 323.55,507.57 324.84,509.16 C326.13,510.75 328.93,512.95 331.07,514.03 C333.20,515.12 336.54,517.42 338.50,519.13 C344.40,524.31 347.51,524.91 369.00,524.95 C380.01,524.97 390.24,524.52 392.50,523.90 ZM 711.50 523.12 C713.70,522.11 716.40,520.27 717.50,519.03 C718.60,517.80 721.26,515.89 723.42,514.79 C728.99,511.94 739.35,501.30 741.71,496.00 C742.81,493.52 744.68,490.64 745.86,489.59 C749.77,486.12 751.00,479.12 751.00,460.48 C751.00,441.33 749.99,436.06 745.19,430.09 C743.59,428.09 741.32,424.59 740.16,422.31 C739.00,420.03 736.68,417.20 735.01,416.01 C733.34,414.82 731.28,412.51 730.44,410.89 C729.41,408.90 726.74,406.85 722.21,404.60 C718.52,402.77 713.47,400.19 711.00,398.88 C706.81,396.67 705.23,396.48 688.22,396.19 C668.48,395.85 661.13,396.99 657.56,400.94 C656.57,402.03 653.55,403.65 650.85,404.55 C647.49,405.66 645.08,407.31 643.22,409.77 C641.72,411.75 639.03,414.72 637.22,416.39 C635.42,418.05 632.77,421.46 631.34,423.96 C629.91,426.46 627.69,429.62 626.42,431.00 C622.57,435.16 621.00,443.69 621.00,460.49 C621.00,477.81 622.19,483.85 626.74,489.57 C628.46,491.73 630.58,495.30 631.45,497.50 C633.25,502.05 644.24,512.55 650.60,515.79 C652.82,516.93 655.28,518.63 656.07,519.59 C656.86,520.54 659.30,522.14 661.50,523.14 C664.96,524.71 668.33,524.96 686.50,524.96 C704.76,524.96 708.02,524.72 711.50,523.12 Z" fill="rgb(252,253,253)"/>
<path d="M 133.90 951.15 C133.23,949.21 131.77,947.78 129.69,947.01 C122.62,944.40 119.39,942.67 116.51,939.98 C114.86,938.43 110.40,934.31 106.61,930.83 C102.82,927.35 98.26,922.25 96.47,919.50 C94.68,916.75 92.04,913.40 90.60,912.06 C88.98,910.56 87.19,907.01 85.94,902.81 C84.44,897.75 83.21,895.54 81.21,894.27 C79.72,893.32 78.17,892.09 77.77,891.52 C77.36,890.96 77.10,885.33 77.18,879.00 C77.25,872.67 77.50,868.90 77.71,870.61 C77.97,872.61 78.96,874.17 80.51,875.00 C83.67,876.70 85.23,880.23 88.77,893.73 C91.35,903.58 92.22,905.51 95.85,909.46 C98.13,911.93 100.00,914.37 100.00,914.89 C100.00,915.97 112.29,928.28 120.41,935.33 C124.44,938.83 128.24,940.96 134.20,943.07 C142.76,946.10 145.62,948.11 146.17,951.50 C146.46,953.28 145.86,953.53 140.72,953.80 C135.10,954.09 134.90,954.02 133.90,951.15 ZM 909.00 951.65 C909.00,948.19 911.95,946.09 921.16,943.01 C929.84,940.09 931.42,938.93 946.44,924.50 C950.45,920.65 954.29,916.42 954.97,915.11 C955.66,913.79 957.90,910.86 959.95,908.61 C963.10,905.14 964.12,902.79 966.48,893.50 C969.86,880.19 971.15,877.49 975.02,875.49 L 978.00 873.95 L 978.00 882.44 C978.00,889.88 977.73,891.17 975.81,892.96 C974.61,894.08 973.29,895.00 972.89,895.00 C972.49,895.00 971.41,897.14 970.48,899.75 C967.38,908.51 965.76,911.88 964.38,912.41 C963.63,912.69 961.46,915.36 959.56,918.33 C957.66,921.31 951.69,927.89 946.30,932.95 C937.18,941.53 933.47,944.02 925.31,947.02 C923.25,947.78 921.77,949.21 921.12,951.09 C920.16,953.83 919.78,954.00 914.55,954.00 C909.39,954.00 909.00,953.83 909.00,951.65 ZM 225.64 786.25 C224.33,784.19 222.25,781.60 221.02,780.50 C219.79,779.40 217.98,776.92 217.00,775.00 C216.02,773.08 214.20,770.60 212.97,769.50 C211.74,768.40 209.45,764.67 207.89,761.22 C206.33,757.77 203.99,753.49 202.69,751.72 C201.39,749.95 199.53,746.25 198.55,743.50 C197.57,740.75 195.74,736.89 194.48,734.92 C193.22,732.95 191.02,726.94 189.59,721.57 C188.16,716.20 186.15,710.61 185.12,709.15 C184.08,707.69 182.48,703.12 181.56,699.00 C178.61,685.82 177.22,680.64 175.02,674.60 C173.08,669.26 171.33,656.24 169.29,632.00 C168.85,626.72 168.21,624.88 165.87,622.22 C163.06,618.99 163.00,618.71 163.12,607.72 C163.18,601.55 163.44,597.29 163.69,598.25 C163.94,599.21 164.52,600.00 164.98,600.00 C166.41,600.00 168.00,606.09 168.00,611.58 C168.00,614.49 168.49,618.14 169.09,619.68 C170.15,622.39 170.51,625.49 172.99,653.00 C173.79,661.85 174.97,667.98 177.02,674.00 C178.62,678.67 180.63,686.66 181.49,691.75 C183.29,702.32 183.65,703.52 186.14,707.12 C187.13,708.56 189.03,714.01 190.36,719.25 C191.69,724.48 193.95,730.76 195.38,733.21 C196.82,735.66 198.87,740.21 199.94,743.32 C201.01,746.44 203.00,750.45 204.36,752.24 C205.72,754.03 207.62,757.53 208.59,760.00 C209.55,762.47 211.84,766.19 213.67,768.25 C215.50,770.32 217.00,772.44 217.00,772.97 C217.00,773.50 219.02,776.20 221.48,778.98 C225.66,783.68 229.70,790.00 228.54,790.00 C228.26,790.00 226.95,788.31 225.64,786.25 ZM 827.12 788.50 C827.86,787.40 830.21,784.47 832.34,782.00 C834.46,779.53 837.02,775.92 838.02,774.00 C839.02,772.08 840.70,769.98 841.76,769.34 C842.81,768.70 844.91,765.55 846.41,762.34 C847.92,759.13 850.21,754.92 851.50,753.00 C852.80,751.08 854.79,746.71 855.92,743.31 C857.06,739.90 859.05,735.54 860.35,733.62 C861.66,731.70 863.49,727.06 864.43,723.31 C865.36,719.57 867.21,714.03 868.52,711.00 C871.27,704.67 872.56,699.78 873.52,692.00 C874.47,684.30 876.61,675.43 879.01,669.16 C880.29,665.84 881.43,659.39 882.03,652.16 C883.87,629.92 884.76,622.49 885.87,619.68 C886.49,618.14 887.00,614.72 887.00,612.08 C887.00,606.88 888.60,601.27 890.68,599.18 C891.77,598.09 892.00,599.76 892.00,608.86 C892.00,619.84 891.37,622.04 887.91,623.20 C886.82,623.56 886.47,626.03 883.58,653.54 C882.64,662.49 881.25,669.44 879.14,675.74 C877.45,680.79 875.21,690.00 874.17,696.22 C873.04,703.00 871.28,709.51 869.78,712.51 C868.40,715.25 866.71,719.97 866.02,723.00 C865.34,726.03 863.22,731.32 861.33,734.77 C859.43,738.22 857.05,743.46 856.03,746.41 C855.01,749.37 852.57,754.13 850.59,757.00 C848.62,759.88 847.00,762.86 847.00,763.63 C847.00,764.41 845.30,766.95 843.21,769.27 C841.13,771.60 838.24,775.30 836.79,777.50 C835.34,779.70 832.27,783.53 829.97,786.00 C827.67,788.47 826.39,789.60 827.12,788.50 ZM 163.08 397.88 C163.01,386.71 163.23,384.98 165.00,382.73 C166.20,381.20 167.01,378.65 167.02,376.34 C167.02,374.23 167.68,370.70 168.47,368.50 C169.26,366.30 169.93,361.05 169.96,356.82 C170.02,345.46 171.82,334.28 174.68,327.50 C176.07,324.20 177.63,318.80 178.14,315.50 C180.07,303.14 181.19,299.00 183.54,295.53 C184.88,293.57 186.89,288.34 188.02,283.92 C189.25,279.12 191.28,274.22 193.07,271.74 C194.72,269.46 196.57,265.62 197.18,263.21 C197.79,260.79 199.83,256.57 201.72,253.82 C203.60,251.08 205.80,246.98 206.60,244.72 C207.40,242.45 209.48,239.41 211.22,237.96 C212.96,236.51 214.89,233.81 215.51,231.96 C216.13,230.12 217.88,227.69 219.39,226.56 L 222.15 224.50 L 527.82 224.50 C822.50,224.50 833.60,224.57 836.20,226.33 C837.68,227.34 839.40,229.69 840.02,231.57 C840.64,233.44 842.41,235.86 843.95,236.96 C845.55,238.11 847.71,241.32 848.99,244.48 C850.22,247.52 851.62,250.00 852.09,250.00 C853.53,250.00 856.08,254.60 857.44,259.69 C858.15,262.33 860.31,266.82 862.24,269.66 C864.60,273.13 866.14,276.96 866.98,281.41 C867.80,285.72 869.28,289.46 871.23,292.16 C873.79,295.69 874.45,297.94 875.68,307.39 C876.52,313.81 878.20,321.15 879.66,324.81 C882.94,333.00 884.92,344.32 884.97,355.09 C884.98,359.82 885.67,365.89 886.49,368.59 C887.31,371.29 887.98,374.78 887.99,376.34 C888.00,377.91 888.90,380.33 890.00,381.73 C891.77,383.97 891.99,385.68 891.88,396.38 C891.82,403.05 891.56,407.71 891.31,406.74 C891.06,405.77 890.48,405.20 890.03,405.48 C888.63,406.34 886.00,399.40 886.00,394.84 C886.00,392.45 885.54,388.91 884.99,386.99 C884.43,385.07 883.29,375.62 882.47,366.00 C880.74,345.87 880.48,344.34 877.85,338.39 C876.77,335.96 874.81,327.48 873.49,319.54 C871.76,309.15 870.27,303.48 868.19,299.30 C866.60,296.11 864.55,290.43 863.62,286.69 C862.66,282.76 860.51,277.79 858.56,274.96 C856.70,272.25 854.87,268.20 854.49,265.94 C854.09,263.60 852.55,260.42 850.90,258.53 C849.30,256.72 846.87,252.77 845.49,249.77 C844.12,246.76 842.05,243.45 840.89,242.40 C839.73,241.36 837.94,238.93 836.91,237.00 C835.88,235.07 833.28,231.59 831.13,229.25 L 827.23 225.00 L 527.86 225.02 L 228.50 225.03 L 224.40 229.29 C222.14,231.62 219.50,235.10 218.53,237.02 C217.57,238.93 215.53,241.85 214.02,243.50 C212.50,245.15 210.44,248.71 209.43,251.41 C208.43,254.10 206.56,257.56 205.28,259.08 C203.99,260.61 202.04,264.48 200.95,267.68 C199.85,270.88 197.45,275.98 195.61,279.00 C193.77,282.02 191.72,286.98 191.06,290.00 C190.40,293.02 188.36,298.65 186.54,302.50 C184.21,307.41 182.58,313.22 181.07,321.94 C179.89,328.79 178.04,336.39 176.95,338.84 C174.92,343.44 172.03,364.02 172.01,374.04 C172.00,377.09 171.32,382.17 170.50,385.34 C169.68,388.51 169.00,393.26 169.00,395.91 C169.00,399.32 168.31,401.74 166.63,404.21 C165.33,406.12 164.02,408.32 163.71,409.10 C163.41,409.87 163.12,404.82 163.08,397.88 ZM 77.24 203.90 C77.08,153.16 77.34,127.31 78.05,125.29 C78.62,123.64 80.17,121.71 81.48,121.01 C84.06,119.63 85.02,117.68 87.56,108.64 C88.53,105.19 90.53,101.28 92.42,99.14 C94.19,97.14 96.68,93.93 97.97,92.00 C102.00,85.96 110.32,77.93 115.06,75.50 C117.57,74.21 121.51,71.58 123.82,69.65 C126.77,67.18 129.74,65.80 133.76,65.00 C144.94,62.80 149.52,61.08 153.21,57.70 L 156.90 54.32 L 181.70 53.66 C213.99,52.81 841.93,52.80 874.21,53.66 L 898.93 54.32 L 902.82 58.06 C906.24,61.34 907.98,62.08 916.97,64.09 C925.37,65.97 928.05,67.04 931.86,70.06 C934.41,72.08 938.30,74.65 940.50,75.76 C944.56,77.82 952.86,86.19 960.95,96.38 C963.96,100.18 966.23,104.55 967.99,109.98 C969.99,116.12 971.46,118.78 974.30,121.38 L 978.00 124.77 L 977.86 148.13 C977.79,160.99 977.52,170.38 977.26,169.00 C977.01,167.62 975.45,164.50 973.80,162.05 C972.15,159.60 969.78,155.30 968.54,152.50 C967.30,149.69 964.95,145.84 963.33,143.95 C961.70,142.05 959.32,138.93 958.03,137.00 C953.57,130.33 946.47,123.81 940.00,120.47 C936.42,118.62 932.54,116.06 931.36,114.78 C929.90,113.19 926.40,111.75 920.26,110.23 C915.33,109.00 910.52,108.00 909.58,108.00 C908.64,108.00 904.88,106.56 901.23,104.80 C894.62,101.61 894.49,101.59 873.04,100.77 C861.19,100.32 697.15,100.07 508.50,100.22 L 165.50 100.50 L 156.50 103.80 C147.40,107.14 144.69,107.95 133.06,110.82 C129.19,111.77 125.38,113.49 123.53,115.11 C121.83,116.60 117.94,119.00 114.88,120.45 C109.17,123.16 103.24,129.10 96.93,138.45 C95.18,141.04 93.07,143.42 92.24,143.74 C91.40,144.06 89.15,147.74 87.22,151.91 C85.29,156.08 82.88,160.23 81.86,161.12 C80.84,162.01 80.00,163.50 80.00,164.43 C80.00,165.36 79.55,165.84 79.01,165.51 C78.36,165.10 77.92,184.63 77.75,222.20 C77.49,277.47 77.47,276.82 77.24,203.90 Z" fill="rgb(249,218,130)"/>
</g>
</svg>